<svg xmlns="http://www.w3.org/2000/svg" style="display:none" aria-hidden="true">
  

  <symbol id="i-send" viewBox="0 0 24 24" fill="none" stroke="currentColor" stroke-width="2" stroke-linecap="round" stroke-linejoin="round"><path d="M12 19V5"></path><path d="M5 12l7-7 7 7"></path></symbol>
  <symbol id="i-reset" viewBox="0 0 24 24" fill="none" stroke="currentColor" stroke-width="2" stroke-linecap="round" stroke-linejoin="round"><path d="M3 12a9 9 0 1 0 3-6.7L3 8"></path><path d="M3 3v5h5"></path></symbol>
  <symbol id="i-sun" viewBox="0 0 24 24" fill="none" stroke="currentColor" stroke-width="2" stroke-linecap="round" stroke-linejoin="round"><circle cx="12" cy="12" r="4"></circle><path d="M12 2v2M12 20v2M4.9 4.9l1.4 1.4M17.7 17.7l1.4 1.4M2 12h2M20 12h2M4.9 19.1l1.4-1.4M17.7 6.3l1.4-1.4"></path></symbol>
  <symbol id="i-moon" viewBox="0 0 24 24" fill="none" stroke="currentColor" stroke-width="2" stroke-linecap="round" stroke-linejoin="round"><path d="M21 12.8A9 9 0 1 1 11.2 3a7 7 0 0 0 9.8 9.8z"></path></symbol>
  <symbol id="i-back" viewBox="0 0 24 24" fill="none" stroke="currentColor" stroke-width="2" stroke-linecap="round" stroke-linejoin="round"><path d="M15 18l-6-6 6-6"></path></symbol>
  <symbol id="i-chevron-right" viewBox="0 0 24 24" fill="none" stroke="currentColor" stroke-width="2" stroke-linecap="round" stroke-linejoin="round"><path d="M9 6l6 6-6 6"></path></symbol>
  <symbol id="i-chevron-down" viewBox="0 0 24 24" fill="none" stroke="currentColor" stroke-width="2" stroke-linecap="round" stroke-linejoin="round"><path d="M6 9l6 6 6-6"></path></symbol>
  <symbol id="i-check" viewBox="0 0 24 24" fill="none" stroke="currentColor" stroke-width="2" stroke-linecap="round" stroke-linejoin="round"><path d="M20 6L9 17l-5-5"></path></symbol>
  <symbol id="i-check-check" viewBox="0 0 24 24" fill="none" stroke="currentColor" stroke-width="2" stroke-linecap="round" stroke-linejoin="round"><path d="M2 12l5 5L18 6"></path><path d="M11 17l1 1L23 7"></path></symbol>
  <symbol id="i-bell" viewBox="0 0 24 24" fill="none" stroke="currentColor" stroke-width="2" stroke-linecap="round" stroke-linejoin="round"><path d="M18 8a6 6 0 1 0-12 0c0 7-3 9-3 9h18s-3-2-3-9"></path><path d="M13.7 21a2 2 0 0 1-3.4 0"></path></symbol>
  <symbol id="i-bell-dot" viewBox="0 0 24 24" fill="none" stroke="currentColor" stroke-width="2" stroke-linecap="round" stroke-linejoin="round"><path d="M18.6 9.2A6 6 0 1 0 6 8c0 7-3 9-3 9h18s-1.6-1.1-2.4-4.6"></path><path d="M13.7 21a2 2 0 0 1-3.4 0"></path><circle cx="19" cy="5" r="3" fill="currentColor" stroke="none"></circle></symbol>
  <symbol id="i-user" viewBox="0 0 24 24" fill="none" stroke="currentColor" stroke-width="2" stroke-linecap="round" stroke-linejoin="round"><path d="M20 21a8 8 0 0 0-16 0"></path><circle cx="12" cy="8" r="4"></circle></symbol>
  <symbol id="i-bot" viewBox="0 0 24 24" fill="none" stroke="currentColor" stroke-width="2" stroke-linecap="round" stroke-linejoin="round"><rect x="4" y="8" width="16" height="12" rx="3"></rect><path d="M12 8V4M8 2h8"></path><circle cx="9" cy="14" r="1" fill="currentColor" stroke="none"></circle><circle cx="15" cy="14" r="1" fill="currentColor" stroke="none"></circle><path d="M2 13v3M22 13v3"></path></symbol>
  <symbol id="i-cpu" viewBox="0 0 24 24" fill="none" stroke="currentColor" stroke-width="2" stroke-linecap="round" stroke-linejoin="round"><rect x="6" y="6" width="12" height="12" rx="2"></rect><rect x="9" y="9" width="6" height="6" rx="1"></rect><path d="M9 2v2M15 2v2M9 20v2M15 20v2M2 9h2M2 15h2M20 9h2M20 15h2"></path></symbol>
  <symbol id="i-sparkles" viewBox="0 0 24 24" fill="none" stroke="currentColor" stroke-width="2" stroke-linecap="round" stroke-linejoin="round"><path d="M12 3l1.6 4.4L18 9l-4.4 1.6L12 15l-1.6-4.4L6 9l4.4-1.6z"></path><path d="M19 14l.7 1.8L21.5 16.5 19.7 17.2 19 19l-.7-1.8L16.5 16.5 18.3 15.8z"></path></symbol>
  <symbol id="i-arrow-ur" viewBox="0 0 24 24" fill="none" stroke="currentColor" stroke-width="2" stroke-linecap="round" stroke-linejoin="round"><path d="M7 17L17 7"></path><path d="M8 7h9v9"></path></symbol>
  <symbol id="i-link" viewBox="0 0 24 24" fill="none" stroke="currentColor" stroke-width="2" stroke-linecap="round" stroke-linejoin="round"><path d="M10 13a5 5 0 0 0 7 0l2-2a5 5 0 0 0-7-7l-1 1"></path><path d="M14 11a5 5 0 0 0-7 0l-2 2a5 5 0 0 0 7 7l1-1"></path></symbol>
  <symbol id="i-linkedin" viewBox="0 0 24 24" fill="none" stroke="currentColor" stroke-width="2" stroke-linecap="round" stroke-linejoin="round"><rect x="3" y="3" width="18" height="18" rx="2"></rect><path d="M8 10v7M8 7v.01M12 17v-4a2 2 0 0 1 4 0v4M12 17v-7"></path></symbol>
  <symbol id="i-youtube" viewBox="0 0 24 24" fill="none" stroke="currentColor" stroke-width="2" stroke-linecap="round" stroke-linejoin="round"><rect x="2.5" y="6" width="19" height="12" rx="4"></rect><path d="M10 9.5l5 2.5-5 2.5z" fill="currentColor" stroke="none"></path></symbol>
  <symbol id="i-mail" viewBox="0 0 24 24" fill="none" stroke="currentColor" stroke-width="2" stroke-linecap="round" stroke-linejoin="round"><rect x="3" y="5" width="18" height="14" rx="2"></rect><path d="M3 7l9 6 9-6"></path></symbol>
  <symbol id="i-search" viewBox="0 0 24 24" fill="none" stroke="currentColor" stroke-width="2" stroke-linecap="round" stroke-linejoin="round"><circle cx="11" cy="11" r="7"></circle><path d="M21 21l-4.3-4.3"></path></symbol>
  <symbol id="i-x" viewBox="0 0 24 24" fill="none" stroke="currentColor" stroke-width="2" stroke-linecap="round" stroke-linejoin="round"><path d="M6 6l12 12M18 6L6 18"></path></symbol>
  <symbol id="i-menu" viewBox="0 0 24 24" fill="none" stroke="currentColor" stroke-width="2" stroke-linecap="round" stroke-linejoin="round"><path d="M3 6h18M3 12h18M3 18h18"></path></symbol>
  <symbol id="i-lock" viewBox="0 0 24 24" fill="none" stroke="currentColor" stroke-width="2" stroke-linecap="round" stroke-linejoin="round"><rect x="4" y="11" width="16" height="9" rx="2"></rect><path d="M8 11V8a4 4 0 0 1 8 0v3"></path></symbol>
  <symbol id="i-message" viewBox="0 0 24 24" fill="none" stroke="currentColor" stroke-width="2" stroke-linecap="round" stroke-linejoin="round"><path d="M21 12a8 8 0 0 1-11.5 7.2L4 21l1.8-5.5A8 8 0 1 1 21 12z"></path></symbol>
  <symbol id="i-zap" viewBox="0 0 24 24" fill="none" stroke="currentColor" stroke-width="2" stroke-linecap="round" stroke-linejoin="round"><path d="M13 2L4 14h6l-1 8 9-12h-6z"></path></symbol>
  <symbol id="i-dot" viewBox="0 0 24 24"><circle cx="12" cy="12" r="4" fill="currentColor"></circle></symbol>
  <symbol id="i-copy" viewBox="0 0 24 24" fill="none" stroke="currentColor" stroke-width="2" stroke-linecap="round" stroke-linejoin="round"><rect x="9" y="9" width="11" height="11" rx="2"></rect><path d="M5 15V5a2 2 0 0 1 2-2h10"></path></symbol>
  <symbol id="i-keyboard" viewBox="0 0 24 24" fill="none" stroke="currentColor" stroke-width="2" stroke-linecap="round" stroke-linejoin="round"><rect x="2" y="6" width="20" height="12" rx="2"></rect><path d="M6 10h.01M10 10h.01M14 10h.01M18 10h.01M6 14h12"></path></symbol>
  <symbol id="i-radio" viewBox="0 0 24 24" fill="none" stroke="currentColor" stroke-width="2" stroke-linecap="round" stroke-linejoin="round"><circle cx="12" cy="12" r="2.5" fill="currentColor" stroke="none"></circle><path d="M7.8 7.8a6 6 0 0 0 0 8.4M16.2 16.2a6 6 0 0 0 0-8.4M5 5a10 10 0 0 0 0 14M19 19a10 10 0 0 0 0-14"></path></symbol>
  <symbol id="i-arrow-keys" viewBox="0 0 24 24" fill="none" stroke="currentColor" stroke-width="2" stroke-linecap="round" stroke-linejoin="round"><path d="M12 4l3 3M12 4L9 7M12 20l3-3M12 20l-3-3M12 4v16"></path></symbol>
</svg>